<svg viewBox="0 0 778 1064" fill="none" xmlns="http://www.w3.org/2000/svg">
<g id="fignu3">
<g id="fignu3-shadow"   filter="url(#filter0_f_430_63)">
<path id="Vector" class="fignu3-shadow" d="M384.5 997C559.85 997 702 983.569 702 967C702 950.431 559.85 937 384.5 937C209.15 937 67 950.431 67 967C67 983.569 209.15 997 384.5 997Z" fill="#464646" fill-opacity="0.15"/>
</g>
<g id="fignu3-card-verse" class="fignu3-card-verse">
<path id="Rectangle 1018" d="M538.046 284.087L128.13 10.1897C119.707 4.56206 110.537 7.87008 107.646 17.5783L22.2332 304.456C19.3427 314.164 23.8271 326.597 32.2494 332.224L442.166 606.121C450.588 611.749 459.759 608.441 462.65 598.733L548.063 311.855C550.953 302.147 546.469 289.714 538.046 284.087Z" fill="url(#paint0_linear_430_63)"/>
<path id="Rectangle 1019" d="M546.388 317.48L105.972 23.2031L83.4997 98.6799L523.916 392.956L546.388 317.48Z" fill="#D6D6D6"/>
<path id="Rectangle 1020" d="M144.596 211.712L111.856 189.836C94.3774 178.157 75.3452 185.022 69.3466 205.169C63.348 225.317 72.6546 251.117 90.1334 262.796L122.873 284.673C140.352 296.352 159.384 289.486 165.383 269.339C171.382 249.191 162.075 223.391 144.596 211.712Z" fill="url(#paint1_linear_430_63)"/>
<text id="5032 9334 3764 9846" transform="matrix(0.83147 0.55557 -0.285354 0.958422 53.1064 259.714)" fill="#FBF8FC" xml:space="preserve" style="white-space: pre" font-family="Sora" font-size="26.4108" letter-spacing="0em"><tspan x="0" y="25.4797">5032 9334 3764 9846</tspan></text>
<text id="gold" transform="matrix(0.83147 0.55557 -0.285354 0.958422 118.538 138.204)" fill="#F3F0F5" xml:space="preserve" style="white-space: pre" font-family="Sora" font-size="26.4108" font-weight="bold" letter-spacing="0em"><tspan x="0" y="25.4797">gold</tspan></text>
<text id="02/17" transform="matrix(0.83147 0.55557 -0.285354 0.958422 66.5991 317.567)" fill="#FBF8FC" xml:space="preserve" style="white-space: pre" font-family="Sora" font-size="13.2054" letter-spacing="0em"><tspan x="0" y="12.9898">02/22</tspan></text>
<text id="02/20" transform="matrix(0.83147 0.55557 -0.285354 0.958422 128.819 359.141)" fill="#FBF8FC" xml:space="preserve" style="white-space: pre" font-family="Sora" font-size="13.2054" letter-spacing="0em"><tspan x="0" y="12.9898">02/26</tspan></text>
<text id="123" transform="matrix(0.83147 0.55557 -0.285354 0.958422 198.968 406.013)" fill="#FBF8FC" xml:space="preserve" style="white-space: pre" font-family="Sora" font-size="13.2054" letter-spacing="0em"><tspan x="0" y="12.9898">123</tspan></text>
<g id="Group 346">
<text id="cirrus." transform="matrix(0.83147 0.55557 -0.285354 0.958422 405.323 550.549)" fill="#FBF9FC" xml:space="preserve" style="white-space: pre" font-family="Sora" font-size="9.53725" font-weight="bold" letter-spacing="0em"><tspan x="0" y="9.24267">cirrus.</tspan></text>
<path id="Ellipse 7" d="M406.811 550.464C417.255 557.442 428.627 553.34 432.211 541.302C435.795 529.264 430.234 513.848 419.791 506.87C409.347 499.892 397.975 503.994 394.391 516.032C390.807 528.07 396.368 543.486 406.811 550.464Z" fill="#0167B2"/>
<path id="Ellipse 8" d="M429.991 565.952C440.435 572.93 451.807 568.828 455.391 556.79C458.975 544.752 453.415 529.336 442.971 522.358C432.527 515.38 421.155 519.482 417.571 531.52C413.987 543.558 419.548 558.974 429.991 565.952Z" fill="#02A1E2"/>
<path id="Intersect" fill-rule="evenodd" clip-rule="evenodd" d="M419.705 553.515C425.377 552.533 430.131 548.212 432.224 541.18C434.318 534.149 433.288 525.963 429.986 518.984C424.313 519.967 419.56 524.288 417.467 531.319C415.373 538.351 416.403 546.536 419.705 553.515Z" fill="#207CBD"/>
</g>
<g id="member since">
<text id="MEMBER" transform="matrix(0.83147 0.55557 -0.285354 0.958422 41.606 303.256)" fill="#FBF8FC" xml:space="preserve" style="white-space: pre" font-family="Source Sans Pro" font-size="4.40181" letter-spacing="0em"><tspan x="0" y="4.56484">MEMBER </tspan></text>
<text id="SINCE" transform="matrix(0.83147 0.55557 -0.285354 0.958422 39.8936 309.007)" fill="#FBF8FC" xml:space="preserve" style="white-space: pre" font-family="Source Sans Pro" font-size="4.40181" letter-spacing="0em"><tspan x="0" y="4.56484">SINCE</tspan></text>
</g>
<g id="valid thru">
<text id="VALID" transform="matrix(0.83147 0.55557 -0.285354 0.958422 109.925 348.906)" fill="#FBF8FC" xml:space="preserve" style="white-space: pre" font-family="Source Sans Pro" font-size="4.40181" letter-spacing="0em"><tspan x="0" y="4.56484">VALID </tspan></text>
<text id="THRU" transform="matrix(0.83147 0.55557 -0.285354 0.958422 108.213 354.657)" fill="#FBF8FC" xml:space="preserve" style="white-space: pre" font-family="Source Sans Pro" font-size="4.40181" letter-spacing="0em"><tspan x="0" y="4.56484">THRU</tspan></text>
</g>
<g id="security code">
<text id="SECURITY" transform="matrix(0.83147 0.55557 -0.285354 0.958422 172.145 390.479)" fill="#FBF8FC" xml:space="preserve" style="white-space: pre" font-family="Source Sans Pro" font-size="4.40181" letter-spacing="0em"><tspan x="0" y="4.56484">SECURITY </tspan></text>
<text id="CODE" transform="matrix(0.83147 0.55557 -0.285354 0.958422 170.432 396.23)" fill="#FBF8FC" xml:space="preserve" style="white-space: pre" font-family="Source Sans Pro" font-size="4.40181" letter-spacing="0em"><tspan x="0" y="4.56484">CODE</tspan></text>
</g>
<path id="Vector_2" d="M269.942 263.431C269.83 263.804 269.595 264.076 269.288 264.187C268.981 264.298 268.626 264.239 268.303 264.022L260.983 259.131L257.706 260.314L261.055 249.063C261.166 248.691 261.401 248.419 261.708 248.308C262.016 248.197 262.37 248.256 262.694 248.472L271.234 254.179C271.557 254.395 271.823 254.75 271.974 255.167C272.124 255.583 272.146 256.027 272.035 256.4L269.942 263.431Z" stroke="#FBF8FC" stroke-width="0.733634" stroke-linecap="round" stroke-linejoin="round"/>
<g id="Group 347">
<path id="Vector_2_2" d="M254.403 293.513C257.772 295.764 261.44 294.441 262.596 290.558C263.753 286.674 261.959 281.701 258.59 279.45C255.221 277.199 251.553 278.523 250.397 282.406C249.24 286.289 251.034 291.262 254.403 293.513Z" stroke="#FBF8FC" stroke-width="0.733634" stroke-linecap="round" stroke-linejoin="round"/>
<path id="Vector_3" d="M255.349 283.186C255.633 282.812 256.034 282.605 256.481 282.602C256.929 282.598 257.395 282.799 257.796 283.167C258.196 283.536 258.507 284.05 258.672 284.617C258.836 285.184 258.845 285.768 258.696 286.266C258.278 287.672 256.238 287.152 256.238 287.152" stroke="#FBF8FC" stroke-width="0.733634" stroke-linecap="round" stroke-linejoin="round"/>
<path id="Vector_4" d="M255.45 289.998L255.456 290.002" stroke="#FBF8FC" stroke-width="0.733634" stroke-linecap="round" stroke-linejoin="round"/>
</g>
<g id="Est&#195;&#131;&#194;&#161; com d&#195;&#131;&#194;&#186;vidas? Nosso app pode te ajudar.">
<text id="Est&#195;&#161; com d&#195;&#186;vidas?" transform="matrix(0.83147 0.55557 -0.285354 0.958422 281.427 256.787)" fill="#FBF8FC" xml:space="preserve" style="white-space: pre" font-family="Source Sans Pro" font-size="6.60271" letter-spacing="0em"><tspan x="0" y="6.34726">Est&#xe1; com d&#xfa;vidas? </tspan></text>
<text id="Nosso app pode te ajudar." transform="matrix(0.83147 0.55557 -0.285354 0.958422 278.574 266.371)" fill="#FBF8FC" xml:space="preserve" style="white-space: pre" font-family="Source Sans Pro" font-size="6.60271" letter-spacing="0em"><tspan x="0" y="6.34726">Nosso app pode te ajudar.</tspan></text>
</g>
<g id="Fale com a gente: 0800 591 2117">
<text id="Fale com a gente:" transform="matrix(0.83147 0.55557 -0.285354 0.958422 272.634 286.319)" fill="#FBF8FC" xml:space="preserve" style="white-space: pre" font-family="Source Sans Pro" font-size="6.60271" letter-spacing="0em"><tspan x="0" y="6.34726">Fale com a gente: </tspan></text>
<text id="0800 591 2117" transform="matrix(0.83147 0.55557 -0.285354 0.958422 269.781 295.903)" fill="#FBF8FC" xml:space="preserve" style="white-space: pre" font-family="Source Sans Pro" font-size="6.60271" letter-spacing="0em"><tspan x="0" y="6.34726">0800 591 2117</tspan></text>
</g>
<path id="Ellipse 170" d="M124.537 269.123C135.149 276.213 146.705 272.045 150.347 259.813C153.989 247.581 148.338 231.916 137.726 224.825C127.114 217.735 115.559 221.903 111.917 234.135C108.275 246.367 113.925 262.032 124.537 269.123Z" fill="#D9D9D9"/>
<path id="Subtract" fill-rule="evenodd" clip-rule="evenodd" d="M121.078 195.998L111.856 189.836C94.3768 178.157 75.345 185.022 69.3464 205.17C63.3478 225.317 72.6544 251.118 90.1328 262.797L99.4708 269.036C127.484 254.181 133.82 239.267 121.078 195.998Z" fill="url(#paint2_linear_430_63)"/>
</g>
<g id="fignu3-card-front" class="fignu3-card-front">
<path id="Rectangle 1021" d="M605.828 241.911L230.947 562.09C223.244 568.669 220.849 581.256 225.596 590.204L365.889 854.613C370.637 863.561 380.73 865.481 388.432 858.903L763.314 538.724C771.017 532.145 773.412 519.558 768.664 510.611L628.371 246.201C623.624 237.253 613.531 235.333 605.828 241.911Z" fill="url(#paint3_linear_430_63)"/>
<text id="Nasser Y S Ali" transform="matrix(0.760406 -0.649448 0.468701 0.883357 456.922 688.527)" fill="#FBF8FC" xml:space="preserve" style="white-space: pre" font-family="Sora" font-size="17.6072" font-weight="bold" letter-spacing="0em"><tspan x="0" y="16.9864">GABRIEL JODISON</tspan></text>
<path id="Union" fill-rule="evenodd" clip-rule="evenodd" d="M380.175 735.863C380.179 735.871 380.182 735.875 380.182 735.875C380.182 735.875 380.181 735.868 380.179 735.856C380.167 735.805 380.129 735.643 380.122 735.34C380.113 734.946 380.16 734.419 380.324 733.821C380.643 732.655 381.426 731.143 383.241 729.808C390.648 724.36 397.517 726.699 399.685 730.785L413.441 756.711C413.583 756.979 413.595 757.113 413.596 757.146C413.581 757.182 413.517 757.304 413.287 757.501L408.979 761.18C408.748 761.377 408.635 761.406 408.603 761.41C408.579 761.397 408.486 761.332 408.344 761.065L395.646 737.132C394.743 735.431 393.143 734.377 391.468 734.033C389.788 733.688 387.869 734.025 386.292 735.371L381.903 739.12L380.175 735.863ZM413.597 757.141C413.598 757.137 413.599 757.134 413.599 757.134C413.599 757.134 413.599 757.137 413.597 757.141ZM408.594 761.41C408.594 761.41 408.595 761.409 408.599 761.41C408.595 761.41 408.594 761.41 408.594 761.41ZM387.448 737.549L383.058 741.297L398.161 769.762C398.523 770.444 398.825 771.302 398.618 772.279C398.416 773.236 397.814 773.879 397.288 774.329L392.901 778.075C392.411 778.494 391.751 778.901 391.009 778.824C390.228 778.744 389.651 778.163 389.237 777.383L376.395 753.179C375.679 751.83 375.49 749.691 375.762 747.703C376.038 745.687 376.841 743.444 378.459 742.062L380.029 740.721L378.298 737.458C378.044 736.979 377.937 736.295 377.921 735.638C377.905 734.928 377.99 734.074 378.242 733.153C378.754 731.281 379.936 729.203 382.226 727.519C390.375 721.525 398.633 723.669 401.559 729.184L415.315 755.111C415.656 755.753 415.909 756.571 415.748 757.5C415.585 758.443 415.055 759.154 414.442 759.678L410.134 763.357C409.521 763.881 408.802 764.236 408.052 764.073C407.313 763.913 406.811 763.308 406.47 762.665L393.772 738.733C393.235 737.723 392.185 736.956 390.935 736.699C389.691 736.444 388.41 736.727 387.448 737.549ZM379.614 744.239L381.184 742.898L396.287 771.362C396.404 771.582 396.453 771.725 396.473 771.806C396.422 771.878 396.32 771.991 396.133 772.152L391.746 775.898C391.508 776.102 391.396 776.127 391.373 776.13C391.34 776.113 391.248 776.039 391.111 775.783L378.269 751.578C377.927 750.934 377.715 749.528 377.933 747.936C378.147 746.372 378.726 744.998 379.614 744.239ZM391.386 776.136C391.386 776.136 391.383 776.135 391.376 776.132C391.383 776.133 391.386 776.136 391.386 776.136ZM439.222 743.124C439.218 743.115 439.215 743.112 439.215 743.112C439.215 743.112 439.216 743.118 439.218 743.13C439.23 743.181 439.268 743.344 439.275 743.646C439.284 744.04 439.237 744.567 439.073 745.165C438.754 746.332 437.97 747.844 436.156 749.178C428.749 754.626 421.88 752.287 419.712 748.202L405.956 722.275C405.814 722.007 405.802 721.873 405.801 721.841C405.816 721.805 405.88 721.682 406.11 721.486L410.418 717.806C410.649 717.609 410.762 717.58 410.794 717.577C410.817 717.589 410.911 717.654 411.053 717.922L423.751 741.854C424.654 743.556 426.254 744.61 427.928 744.953C429.609 745.299 431.528 744.962 433.104 743.615L437.494 739.866L439.222 743.124ZM405.8 721.845C405.799 721.85 405.798 721.852 405.798 721.852C405.798 721.852 405.798 721.85 405.8 721.845ZM410.803 717.577C410.803 717.577 410.801 717.577 410.797 717.576C410.801 717.576 410.803 717.577 410.803 717.577ZM431.949 741.438L436.339 737.689L421.236 709.225C420.874 708.542 420.572 707.684 420.778 706.707C420.98 705.751 421.582 705.107 422.109 704.657L426.496 700.911C426.986 700.492 427.646 700.086 428.387 700.162C429.168 700.243 429.746 700.824 430.159 701.603L443.002 725.807C443.718 727.157 443.907 729.295 443.635 731.284C443.359 733.299 442.556 735.542 440.938 736.925L439.368 738.265L441.099 741.528C441.353 742.007 441.46 742.692 441.475 743.349C441.492 744.058 441.407 744.913 441.155 745.834C440.643 747.706 439.46 749.783 437.171 751.467C429.022 757.461 420.764 755.317 417.838 749.802L404.081 723.876C403.741 723.233 403.488 722.415 403.649 721.487C403.812 720.543 404.342 719.832 404.955 719.308L409.263 715.629C409.876 715.105 410.595 714.75 411.345 714.913C412.084 715.073 412.586 715.678 412.927 716.321L425.625 740.253C426.161 741.264 427.212 742.03 428.462 742.287C429.706 742.542 430.987 742.26 431.949 741.438ZM439.783 734.747L438.213 736.088L423.11 707.624C422.993 707.404 422.943 707.261 422.924 707.18C422.975 707.109 423.076 706.995 423.264 706.834L427.651 703.088C427.889 702.885 428.001 702.859 428.024 702.856C428.057 702.874 428.149 702.947 428.285 703.204L441.128 727.408C441.47 728.053 441.682 729.458 441.464 731.05C441.25 732.615 440.671 733.989 439.783 734.747ZM428.011 702.851C428.011 702.851 428.014 702.851 428.021 702.854C428.014 702.853 428.011 702.851 428.011 702.851Z" fill="#FBF8FC"/>
<path id="Ellipse 171" d="M587.086 382.461C601.182 370.422 605.566 347.389 596.877 331.014C588.189 314.639 569.719 311.124 555.623 323.163C541.528 335.202 537.144 358.235 545.833 374.61C554.521 390.985 572.991 394.5 587.086 382.461Z" fill="#E71924"/>
<path id="Ellipse 172" d="M618.191 355.894C632.287 343.855 636.671 320.822 627.982 304.447C619.294 288.072 600.824 284.557 586.728 296.596C572.633 308.635 568.249 331.668 576.938 348.043C585.626 364.418 604.096 367.933 618.191 355.894Z" fill="#F99F19"/>
<path id="Intersect_2" fill-rule="evenodd" clip-rule="evenodd" d="M599.32 362.922C602.507 352.323 601.896 340.472 596.816 330.897C591.735 321.323 583.311 316.145 574.372 315.902C571.185 326.501 571.796 338.352 576.876 347.927C581.957 357.502 590.381 362.68 599.32 362.922Z" fill="#F26520"/>
<g id="Group 348">
<path id="Rectangle 344" d="M366.816 593.142L318.962 634.013C317.09 635.612 316.508 638.672 317.662 640.846L337.326 677.908C338.48 680.082 340.933 680.549 342.805 678.95L390.659 638.079C392.532 636.48 393.114 633.421 391.96 631.246L372.295 594.185C371.142 592.01 368.688 591.543 366.816 593.142Z" fill="url(#paint4_linear_430_63)" stroke="#211F21" stroke-width="1.57332"/>
<path id="Vector 9" d="M323.515 651.332L339.865 637.367" stroke="#211F21" stroke-width="1.46727" stroke-linecap="round"/>
<path id="Vector 10" d="M331.134 665.692L347.126 652.034" stroke="#211F21" stroke-width="1.46727" stroke-linecap="round"/>
<path id="Vector 11" d="M369.418 632.996L385.369 619.372" stroke="#211F21" stroke-width="1.46727" stroke-linecap="round"/>
<path id="Vector 12" d="M361.804 619.302L377.995 605.474" stroke="#211F21" stroke-width="1.46727" stroke-linecap="round"/>
<path id="Ellipse 12" d="M347.19 621.685C347.851 621.121 348.056 620.041 347.649 619.273C347.242 618.506 346.376 618.341 345.715 618.905C345.055 619.47 344.849 620.549 345.256 621.317C345.664 622.084 346.53 622.249 347.19 621.685Z" fill="#211F21"/>
<g id="Vector 13">
<path id="Vector_5" d="M416.669 597.301C415.059 586.213 412.826 581.085 404.917 575.152C404.077 574.522 404.015 573.453 404.332 572.958C404.649 572.463 405.348 572.09 406.219 572.692C415.07 578.803 417.634 584.278 419.201 596.612C419.294 597.879 418.609 598.633 417.974 598.669C417.232 598.711 416.805 598.238 416.669 597.301Z" fill="#FBF8FC"/>
<path id="Vector_6" d="M401.098 579.423C400.822 579.995 401.033 581.091 402.005 581.678C408.128 585.871 409.986 589.673 410.977 598.587C411.055 599.504 411.626 600.104 412.236 599.868C412.957 599.589 413.218 598.65 413.14 597.749C412.306 588.089 410.208 583.921 403.185 578.987C402.536 578.531 401.512 578.564 401.098 579.423Z" fill="#FBF8FC"/>
<path id="Vector_7" d="M398.708 585.84C398.233 586.582 398.535 587.442 399.292 588.034C403.232 591.11 404.801 593.381 405.315 599.384C405.366 600.462 405.683 601.382 406.497 601.066C407.312 600.751 407.58 599.922 407.524 599.179C407 591.74 404.858 589.148 400.15 585.281C399.748 584.951 399.183 585.097 398.708 585.84Z" fill="#FBF8FC"/>
<path id="Vector_8" d="M395.504 591.269C395.151 592.243 395.439 593.019 396.533 593.756C398.838 595.335 399.542 596.726 399.852 600.01C399.965 601.479 400.483 602.837 401.403 602.388C402.324 601.938 402.503 601.307 402.261 599.636C401.475 595.365 400.554 593.357 397.591 590.833C396.854 590.151 396.056 590.125 395.504 591.269Z" fill="#FBF8FC"/>
</g>
<path id="Vector 14" d="M356.701 615.582C351.959 610.835 347.521 610.295 342.935 614.212C337.352 618.98 338.395 625.266 339.742 637.135C345.07 641.203 346.788 644.378 347.485 651.728C357.379 660.588 361.973 661.995 366.486 658.052C372.468 652.943 371.046 645.599 369.218 633.166C364.612 629.212 362.839 626.374 361.564 619.575" stroke="#211F21" stroke-width="1.46727" stroke-linecap="round"/>
</g>
</g>
</g>
<defs>
<filter id="filter0_f_430_63" x="0" y="870" width="769" height="194" filterUnits="userSpaceOnUse" color-interpolation-filters="sRGB">
<feFlood flood-opacity="0" result="BackgroundImageFix"/>
<feBlend mode="normal" in="SourceGraphic" in2="BackgroundImageFix" result="shape"/>
<feGaussianBlur stdDeviation="33.5" result="effect1_foregroundBlur_430_63"/>
</filter>
<linearGradient id="paint0_linear_430_63" x1="472.088" y1="292.138" x2="189.454" y2="468.144" gradientUnits="userSpaceOnUse">
<stop stop-color="#A950C4"/>
<stop offset="1" stop-color="#82269E"/>
</linearGradient>
<linearGradient id="paint1_linear_430_63" x1="109.066" y1="275.644" x2="164.349" y2="235.925" gradientUnits="userSpaceOnUse">
<stop stop-color="#F6F3F7"/>
<stop offset="1" stop-color="#D6D6D6"/>
</linearGradient>
<linearGradient id="paint2_linear_430_63" x1="122.776" y1="201.347" x2="69.841" y2="233.869" gradientUnits="userSpaceOnUse">
<stop stop-color="#F5F5F5"/>
<stop offset="1" stop-color="#D6D6D6"/>
</linearGradient>
<linearGradient id="paint3_linear_430_63" x1="578.605" y1="323.39" x2="645.237" y2="738.879" gradientUnits="userSpaceOnUse">
<stop stop-color="#A950C4"/>
<stop offset="1" stop-color="#82269E"/>
</linearGradient>
<linearGradient id="paint4_linear_430_63" x1="369.276" y1="600.107" x2="335.386" y2="673.519" gradientUnits="userSpaceOnUse">
<stop stop-color="#F4F4F4"/>
<stop offset="1" stop-color="#D6D6D6"/>
</linearGradient>
</defs>
</svg>
