<svg width="722" height="458" viewBox="0 0 722 458" fill="none" xmlns="http://www.w3.org/2000/svg">
<g clip-path="url(#clip0_421_21)">
<g filter="url(#filter0_i_421_21)">
<path d="M697 0H25C11.1929 0 0 11.1929 0 25V433C0 446.807 11.1929 458 25 458H697C710.807 458 722 446.807 722 433V25C722 11.1929 710.807 0 697 0Z" fill="url(#paint0_linear_421_21)"/>
</g>
<path fill-rule="evenodd" clip-rule="evenodd" d="M95.3452 319.859C95.3452 319.872 95.3463 319.879 95.3463 319.879C95.3463 319.879 95.3496 319.871 95.354 319.856C95.3731 319.79 95.4331 319.584 95.6221 319.257C95.8687 318.83 96.2717 318.313 96.8653 317.826C98.0224 316.877 99.9786 315.982 103.09 316.211C115.793 317.143 122.736 325.857 122.736 332.161V372.168C122.736 372.581 122.663 372.734 122.642 372.769C122.6 372.794 122.441 372.866 122.028 372.866H114.306C113.893 372.866 113.734 372.794 113.692 372.769C113.671 372.734 113.599 372.581 113.599 372.168V335.238C113.599 332.612 112.315 330.043 110.474 328.159C108.627 326.268 106.04 324.886 103.213 324.886H95.3452V319.859ZM122.647 372.766C122.651 372.762 122.654 372.76 122.654 372.76C122.654 372.76 122.652 372.762 122.647 372.766ZM113.681 372.76C113.681 372.76 113.683 372.762 113.688 372.766C113.683 372.762 113.681 372.76 113.681 372.76ZM103.213 328.245H95.3452V372.168C95.3451 373.221 95.156 374.405 94.2613 375.256C93.3862 376.088 92.2223 376.225 91.2784 376.225H83.4154C82.537 376.225 81.456 376.058 80.5915 375.305C79.6809 374.511 79.3486 373.37 79.3486 372.168V334.819C79.3486 332.736 80.5152 330.295 82.1528 328.43C83.8125 326.54 86.2707 324.886 89.1714 324.886H91.9856V319.851C91.9856 319.113 92.3018 318.288 92.713 317.577C93.1569 316.808 93.8212 315.978 94.7349 315.229C96.5921 313.705 99.4099 312.572 103.336 312.86C117.312 313.886 126.095 323.651 126.095 332.161V372.168C126.095 373.159 125.872 374.257 125.065 375.097C124.246 375.95 123.128 376.225 122.028 376.225H114.306C113.207 376.225 112.088 375.95 111.269 375.097C110.462 374.257 110.239 373.159 110.239 372.168V335.238C110.239 333.679 109.445 331.913 108.071 330.506C106.704 329.107 104.938 328.245 103.213 328.245ZM89.1714 328.245H91.9856V372.168C91.9856 372.506 91.9534 372.704 91.9249 372.808C91.8146 372.837 91.615 372.866 91.2784 372.866H83.4154C82.9884 372.866 82.834 372.791 82.8028 372.774C82.774 372.725 82.7082 372.563 82.7082 372.168V334.819C82.7082 333.824 83.3665 332.139 84.6771 330.647C85.9656 329.179 87.5788 328.245 89.1714 328.245ZM82.8161 372.791C82.8161 372.791 82.8116 372.788 82.8054 372.778C82.8134 372.786 82.8161 372.791 82.8161 372.791ZM163.431 381.121C163.431 381.108 163.43 381.101 163.43 381.101C163.43 381.101 163.427 381.108 163.422 381.124C163.403 381.189 163.343 381.395 163.154 381.723C162.908 382.149 162.505 382.666 161.911 383.153C160.754 384.102 158.798 384.997 155.686 384.769C142.984 383.836 136.041 375.123 136.041 368.819V328.812C136.041 328.399 136.114 328.246 136.135 328.211C136.176 328.186 136.335 328.114 136.748 328.114H144.471C144.884 328.114 145.043 328.186 145.084 328.211C145.105 328.246 145.178 328.399 145.178 328.812V365.741C145.178 368.367 146.461 370.937 148.302 372.821C150.15 374.712 152.737 376.094 155.563 376.094H163.431V381.121ZM136.125 328.218C136.125 328.218 136.128 328.216 136.13 328.214C136.125 328.217 136.123 328.219 136.123 328.219L136.125 328.218ZM145.096 328.219C145.096 328.219 145.093 328.218 145.089 328.214C145.094 328.217 145.096 328.219 145.096 328.219ZM155.563 372.734H163.431V328.812C163.431 327.759 163.621 326.575 164.515 325.724C165.39 324.892 166.554 324.754 167.498 324.754H175.361C176.239 324.754 177.321 324.921 178.185 325.675C179.096 326.469 179.428 327.609 179.428 328.812V366.161C179.428 368.243 178.261 370.685 176.624 372.55C174.964 374.44 172.506 376.094 169.605 376.094H166.791V381.128C166.791 381.867 166.475 382.691 166.064 383.403C165.62 384.172 164.955 385.002 164.042 385.751C162.184 387.274 159.367 388.408 155.44 388.119C141.464 387.093 132.681 377.328 132.681 368.819V328.812C132.681 327.821 132.904 326.723 133.711 325.883C134.53 325.029 135.649 324.754 136.748 324.754H144.471C145.57 324.754 146.689 325.029 147.508 325.883C148.314 326.723 148.537 327.821 148.537 328.812V365.741C148.537 367.3 149.331 369.067 150.705 370.473C152.073 371.873 153.838 372.734 155.563 372.734ZM169.605 372.734H166.791V328.812C166.791 328.473 166.823 328.276 166.852 328.172C166.962 328.143 167.161 328.114 167.498 328.114H175.361C175.788 328.114 175.943 328.188 175.974 328.206C176.003 328.255 176.068 328.416 176.068 328.812V366.161C176.068 367.156 175.41 368.84 174.099 370.333C172.811 371.8 171.198 372.734 169.605 372.734ZM175.963 328.19C175.961 328.189 175.96 328.188 175.96 328.188C175.96 328.188 175.963 328.194 175.971 328.202C175.967 328.196 175.965 328.192 175.963 328.19Z" fill="#FBF8FC"/>
<path d="M581.889 132.248C607.156 132.248 627.639 111.764 627.639 86.4971C627.639 61.2298 607.156 40.7466 581.889 40.7466C556.622 40.7466 536.138 61.2298 536.138 86.4971C536.138 111.764 556.622 132.248 581.889 132.248Z" fill="#E71924"/>
<path d="M637.647 132.248C662.914 132.248 683.398 111.764 683.398 86.4971C683.398 61.2298 662.914 40.7466 637.647 40.7466C612.38 40.7466 591.896 61.2298 591.896 86.4971C591.896 111.764 612.38 132.248 637.647 132.248Z" fill="#F99F19"/>
<path fill-rule="evenodd" clip-rule="evenodd" d="M609.768 122.595C620.636 114.23 627.64 101.092 627.64 86.3172C627.64 71.5427 620.636 58.404 609.768 50.0396C598.9 58.404 591.897 71.5427 591.897 86.3172C591.897 101.092 598.9 114.23 609.768 122.595Z" fill="#F26520"/>
<path d="M172.279 156.195H86.4971C83.1413 156.195 80.4209 158.915 80.4209 162.271V219.459C80.4209 222.815 83.1413 225.536 86.4971 225.536H172.279C175.635 225.536 178.356 222.815 178.356 219.459V162.271C178.356 158.915 175.635 156.195 172.279 156.195Z" fill="url(#paint1_linear_421_21)" stroke="#211F21" stroke-width="2.14455"/>
<path d="M80.7783 178.713H110.087" stroke="#211F21" stroke-width="2" stroke-linecap="round"/>
<path d="M80.7783 200.873H109.445" stroke="#211F21" stroke-width="2" stroke-linecap="round"/>
<path d="M149.404 200.873H177.998" stroke="#211F21" stroke-width="2" stroke-linecap="round"/>
<path d="M148.975 179.428H177.998" stroke="#211F21" stroke-width="2" stroke-linecap="round"/>
<path d="M129.388 168.706C130.572 168.706 131.533 167.745 131.533 166.561C131.533 165.377 130.572 164.417 129.388 164.417C128.204 164.417 127.243 165.377 127.243 166.561C127.243 167.745 128.204 168.706 129.388 168.706Z" fill="#211F21"/>
<path d="M231.053 205.824C236.325 192.59 236.926 185.119 231.053 171.645C230.43 170.215 231.053 169.024 231.768 168.786C232.483 168.547 233.589 168.786 234.27 170.215C241.188 184.73 240.767 192.87 234.627 207.387C233.912 208.817 232.575 208.998 231.768 208.46C230.824 207.831 230.608 206.941 231.053 205.824Z" fill="#FBF8FC"/>
<path d="M223.547 172.717C222.832 173.075 222.375 174.43 223.19 175.934C227.999 185.94 227.801 191.662 223.19 202.026C222.686 203.071 222.998 204.226 223.905 204.528C224.977 204.886 225.913 204.125 226.406 203.098C231.701 192.084 231.84 185.756 226.406 174.147C225.905 173.075 224.619 172.181 223.547 172.717Z" fill="#FBF8FC"/>
<path d="M216.399 177.364C215.326 177.721 215.136 178.908 215.684 180.223C218.53 187.063 218.979 190.898 215.684 197.737C215.041 198.929 214.83 200.193 216.041 200.596C217.252 201 218.126 200.363 218.543 199.524C222.766 191.149 221.82 186.454 218.543 178.079C218.263 177.364 217.471 177.006 216.399 177.364Z" fill="#FBF8FC"/>
<path d="M208.893 180.223C207.82 180.938 207.668 182.022 208.535 183.797C210.344 187.564 210.303 189.68 208.535 193.448C207.713 195.11 207.463 197.022 208.893 197.38C210.322 197.737 210.957 197.229 211.752 195.235C213.578 189.987 213.756 187.02 211.752 181.653C211.291 180.261 210.322 179.508 208.893 180.223Z" fill="#FBF8FC"/>
<path d="M145.115 170.849C142.372 161.508 137.251 156.91 129.03 156.91C119.023 156.91 116.194 164.53 110.087 178.355C113.998 187.507 114.039 192.437 110.087 200.873C116.494 219.254 121.24 224.915 129.388 224.821C140.111 224.821 143.163 215.733 149.046 200.873C145.952 192.497 145.622 187.875 148.5 179.5" stroke="#211F21" stroke-width="2" stroke-linecap="round"/>
<path d="M219.688 363.468C218.215 363.468 216.88 363.225 215.684 362.74C214.488 362.255 213.457 361.57 212.59 360.686C211.741 359.802 211.082 358.762 210.614 357.566C210.146 356.353 209.912 355.035 209.912 353.614V353.042C209.912 351.829 210.12 350.659 210.536 349.532C210.969 348.388 211.585 347.365 212.382 346.464C213.197 345.545 214.185 344.826 215.346 344.306C216.507 343.769 217.816 343.5 219.272 343.5C220.849 343.5 222.253 343.803 223.484 344.41C224.715 344.999 225.703 345.831 226.448 346.906C227.193 347.963 227.627 349.194 227.748 350.598H225.148C225.027 349.541 224.68 348.665 224.108 347.972C223.536 347.261 222.825 346.733 221.976 346.386C221.144 346.022 220.243 345.84 219.272 345.84C218.284 345.84 217.374 346.022 216.542 346.386C215.71 346.733 214.991 347.235 214.384 347.894C213.795 348.553 213.335 349.341 213.006 350.26C212.677 351.179 212.512 352.21 212.512 353.354C212.512 354.654 212.685 355.798 213.032 356.786C213.396 357.757 213.899 358.571 214.54 359.23C215.181 359.871 215.935 360.357 216.802 360.686C217.686 361.015 218.648 361.18 219.688 361.18C221.161 361.18 222.453 360.885 223.562 360.296C224.689 359.689 225.538 358.909 226.11 357.956L225.174 361.05V355.408H227.566V359.932C226.717 361.041 225.625 361.908 224.29 362.532C222.955 363.156 221.421 363.468 219.688 363.468ZM219.012 355.928V353.796H229.178V355.928H219.012ZM230.563 363L237.401 344.02H241.717L248.763 363H246.137L239.767 345.684L241.015 346.308H237.947L239.273 345.684L233.111 363H230.563ZM234.645 357.332L235.503 355.044H243.693L244.551 357.332H234.645ZM254.271 363.104V360.868H259.575C260.598 360.868 261.387 360.582 261.941 360.01C262.513 359.421 262.799 358.641 262.799 357.67C262.799 356.682 262.522 355.911 261.967 355.356C261.413 354.784 260.615 354.498 259.575 354.498H254.271V352.834H259.211C260.425 352.834 261.491 352.981 262.409 353.276C263.345 353.571 264.073 354.065 264.593 354.758C265.131 355.434 265.399 356.361 265.399 357.54V357.904C265.399 359.013 265.174 359.958 264.723 360.738C264.273 361.501 263.588 362.09 262.669 362.506C261.751 362.905 260.598 363.104 259.211 363.104H254.271ZM252.243 363.104V343.916H254.791V363.104H252.243ZM254.271 354.03V352.366H258.873C259.948 352.366 260.737 352.08 261.239 351.508C261.759 350.919 262.019 350.173 262.019 349.272C262.019 348.353 261.759 347.608 261.239 347.036C260.737 346.447 259.948 346.152 258.873 346.152H254.271V343.916H258.431C260.511 343.916 262.063 344.358 263.085 345.242C264.108 346.109 264.619 347.365 264.619 349.012V349.376C264.619 350.537 264.359 351.465 263.839 352.158C263.319 352.834 262.591 353.319 261.655 353.614C260.737 353.891 259.662 354.03 258.431 354.03H254.271ZM269.915 363V343.916H272.463V363H269.915ZM281.641 363L275.349 354.55H278.339L284.735 363H281.641ZM271.501 356.136V353.874H276.597C277.395 353.874 278.079 353.709 278.651 353.38C279.223 353.051 279.665 352.6 279.977 352.028C280.289 351.439 280.445 350.771 280.445 350.026C280.445 349.281 280.289 348.622 279.977 348.05C279.665 347.461 279.223 347.001 278.651 346.672C278.079 346.325 277.395 346.152 276.597 346.152H271.501V343.916H276.129C277.516 343.916 278.729 344.124 279.769 344.54C280.809 344.956 281.615 345.597 282.187 346.464C282.759 347.331 283.045 348.449 283.045 349.818V350.234C283.045 351.603 282.751 352.721 282.161 353.588C281.589 354.455 280.783 355.096 279.743 355.512C278.721 355.928 277.516 356.136 276.129 356.136H271.501ZM288.172 363V344.02H290.72V363H288.172ZM296.296 363V344.02H298.844V363H296.296ZM298.324 363V360.712H307.528V363H298.324ZM298.324 354.498V352.21H306.722V354.498H298.324ZM298.324 346.308V344.02H307.268V346.308H298.324ZM311.886 363V344.02H314.434V363H311.886ZM313.914 363V360.712H322.598V363H313.914ZM336.78 363.468C335.55 363.468 334.432 363.208 333.426 362.688C332.421 362.168 331.624 361.397 331.034 360.374C330.462 359.351 330.176 358.077 330.176 356.552V355.902H332.724V357.02C332.724 358.32 333.106 359.334 333.868 360.062C334.631 360.773 335.602 361.128 336.78 361.128C337.959 361.128 338.93 360.773 339.692 360.062C340.455 359.334 340.836 358.32 340.836 357.02V345.788H343.384V356.552C343.384 358.077 343.09 359.351 342.5 360.374C341.928 361.397 341.14 362.168 340.134 362.688C339.146 363.208 338.028 363.468 336.78 363.468ZM332.672 346.308V344.02H343.384V346.308H332.672ZM357.077 363.468C355.379 363.468 353.914 363.165 352.683 362.558C351.453 361.951 350.439 361.154 349.641 360.166C348.844 359.178 348.246 358.121 347.847 356.994C347.466 355.867 347.275 354.784 347.275 353.744V353.172C347.275 352.045 347.475 350.91 347.873 349.766C348.272 348.622 348.879 347.582 349.693 346.646C350.508 345.693 351.522 344.93 352.735 344.358C353.966 343.786 355.413 343.5 357.077 343.5C358.741 343.5 360.18 343.786 361.393 344.358C362.624 344.93 363.647 345.693 364.461 346.646C365.276 347.582 365.883 348.622 366.281 349.766C366.68 350.91 366.879 352.045 366.879 353.172V353.744C366.879 354.784 366.68 355.867 366.281 356.994C365.9 358.121 365.311 359.178 364.513 360.166C363.716 361.154 362.702 361.951 361.471 362.558C360.241 363.165 358.776 363.468 357.077 363.468ZM357.077 361.128C358.187 361.128 359.183 360.92 360.067 360.504C360.969 360.088 361.731 359.525 362.355 358.814C362.979 358.086 363.456 357.271 363.785 356.37C364.115 355.451 364.279 354.489 364.279 353.484C364.279 352.427 364.115 351.439 363.785 350.52C363.456 349.601 362.979 348.795 362.355 348.102C361.731 347.391 360.969 346.837 360.067 346.438C359.183 346.039 358.187 345.84 357.077 345.84C355.968 345.84 354.963 346.039 354.061 346.438C353.177 346.837 352.423 347.391 351.799 348.102C351.175 348.795 350.699 349.601 350.369 350.52C350.04 351.439 349.875 352.427 349.875 353.484C349.875 354.489 350.04 355.451 350.369 356.37C350.699 357.271 351.175 358.086 351.799 358.814C352.423 359.525 353.177 360.088 354.061 360.504C354.963 360.92 355.968 361.128 357.077 361.128ZM373.099 363.104V360.764H377.831C378.975 360.764 379.989 360.582 380.873 360.218C381.775 359.837 382.537 359.317 383.161 358.658C383.803 357.999 384.288 357.228 384.617 356.344C384.947 355.46 385.111 354.507 385.111 353.484C385.111 352.409 384.947 351.439 384.617 350.572C384.288 349.688 383.803 348.925 383.161 348.284C382.537 347.625 381.775 347.123 380.873 346.776C379.989 346.429 378.975 346.256 377.831 346.256H373.099V343.916H377.571C379.287 343.916 380.778 344.185 382.043 344.722C383.309 345.242 384.357 345.953 385.189 346.854C386.039 347.738 386.671 348.735 387.087 349.844C387.503 350.936 387.711 352.054 387.711 353.198V353.77C387.711 354.879 387.503 355.989 387.087 357.098C386.671 358.207 386.039 359.213 385.189 360.114C384.357 361.015 383.309 361.743 382.043 362.298C380.778 362.835 379.287 363.104 377.571 363.104H373.099ZM371.071 363.104V343.916H373.619V363.104H371.071ZM391.69 363V344.02H394.238V363H391.69ZM405.976 363.468C404.398 363.468 403.055 363.208 401.946 362.688C400.836 362.168 399.987 361.449 399.398 360.53C398.808 359.611 398.514 358.571 398.514 357.41H401.062C401.062 357.982 401.209 358.554 401.504 359.126C401.816 359.698 402.327 360.175 403.038 360.556C403.766 360.937 404.745 361.128 405.976 361.128C407.12 361.128 408.056 360.963 408.784 360.634C409.512 360.287 410.049 359.845 410.396 359.308C410.742 358.753 410.916 358.155 410.916 357.514C410.916 356.734 410.578 356.093 409.902 355.59C409.226 355.07 408.238 354.749 406.938 354.628L404.832 354.446C403.15 354.307 401.807 353.787 400.802 352.886C399.796 351.985 399.294 350.797 399.294 349.324C399.294 348.163 399.571 347.149 400.126 346.282C400.698 345.415 401.486 344.739 402.492 344.254C403.497 343.751 404.667 343.5 406.002 343.5C407.319 343.5 408.48 343.743 409.486 344.228C410.491 344.713 411.271 345.398 411.826 346.282C412.398 347.149 412.684 348.189 412.684 349.402H410.136C410.136 348.795 409.988 348.223 409.694 347.686C409.416 347.149 408.974 346.707 408.368 346.36C407.761 346.013 406.972 345.84 406.002 345.84C405.066 345.84 404.286 346.005 403.662 346.334C403.055 346.663 402.596 347.097 402.284 347.634C401.989 348.154 401.842 348.717 401.842 349.324C401.842 350.017 402.11 350.633 402.648 351.17C403.185 351.707 403.982 352.019 405.04 352.106L407.146 352.288C408.446 352.392 409.564 352.669 410.5 353.12C411.453 353.553 412.181 354.143 412.684 354.888C413.204 355.616 413.464 356.491 413.464 357.514C413.464 358.675 413.152 359.707 412.528 360.608C411.904 361.509 411.028 362.211 409.902 362.714C408.775 363.217 407.466 363.468 405.976 363.468ZM426.241 363.468C424.543 363.468 423.078 363.165 421.847 362.558C420.617 361.951 419.603 361.154 418.805 360.166C418.008 359.178 417.41 358.121 417.011 356.994C416.63 355.867 416.439 354.784 416.439 353.744V353.172C416.439 352.045 416.639 350.91 417.037 349.766C417.436 348.622 418.043 347.582 418.857 346.646C419.672 345.693 420.686 344.93 421.899 344.358C423.13 343.786 424.577 343.5 426.241 343.5C427.905 343.5 429.344 343.786 430.557 344.358C431.788 344.93 432.811 345.693 433.625 346.646C434.44 347.582 435.047 348.622 435.445 349.766C435.844 350.91 436.043 352.045 436.043 353.172V353.744C436.043 354.784 435.844 355.867 435.445 356.994C435.064 358.121 434.475 359.178 433.677 360.166C432.88 361.154 431.866 361.951 430.635 362.558C429.405 363.165 427.94 363.468 426.241 363.468ZM426.241 361.128C427.351 361.128 428.347 360.92 429.231 360.504C430.133 360.088 430.895 359.525 431.519 358.814C432.143 358.086 432.62 357.271 432.949 356.37C433.279 355.451 433.443 354.489 433.443 353.484C433.443 352.427 433.279 351.439 432.949 350.52C432.62 349.601 432.143 348.795 431.519 348.102C430.895 347.391 430.133 346.837 429.231 346.438C428.347 346.039 427.351 345.84 426.241 345.84C425.132 345.84 424.127 346.039 423.225 346.438C422.341 346.837 421.587 347.391 420.963 348.102C420.339 348.795 419.863 349.601 419.533 350.52C419.204 351.439 419.039 352.427 419.039 353.484C419.039 354.489 419.204 355.451 419.533 356.37C419.863 357.271 420.339 358.086 420.963 358.814C421.587 359.525 422.341 360.088 423.225 360.504C424.127 360.92 425.132 361.128 426.241 361.128ZM440.235 363V344.02H444.395L454.041 360.712H454.873L454.353 361.18V344.02H456.797V363H452.585L442.939 346.308H442.107L442.627 345.84V363H440.235Z" fill="white"/>
</g>
<defs>
<filter id="filter0_i_421_21" x="0" y="0" width="725" height="461" filterUnits="userSpaceOnUse" color-interpolation-filters="sRGB">
<feFlood flood-opacity="0" result="BackgroundImageFix"/>
<feBlend mode="normal" in="SourceGraphic" in2="BackgroundImageFix" result="shape"/>
<feColorMatrix in="SourceAlpha" type="matrix" values="0 0 0 0 0 0 0 0 0 0 0 0 0 0 0 0 0 0 127 0" result="hardAlpha"/>
<feOffset dx="3" dy="3"/>
<feGaussianBlur stdDeviation="3"/>
<feComposite in2="hardAlpha" operator="arithmetic" k2="-1" k3="1"/>
<feColorMatrix type="matrix" values="0 0 0 0 1 0 0 0 0 1 0 0 0 0 1 0 0 0 0.25 0"/>
<feBlend mode="normal" in2="shape" result="effect1_innerShadow_421_21"/>
</filter>
<linearGradient id="paint0_linear_421_21" x1="610.09" y1="61.83" x2="354.096" y2="526.995" gradientUnits="userSpaceOnUse">
<stop stop-color="#A950C4"/>
<stop offset="1" stop-color="#82269E"/>
</linearGradient>
<linearGradient id="paint1_linear_421_21" x1="171" y1="165" x2="87" y2="221" gradientUnits="userSpaceOnUse">
<stop stop-color="#F4F4F4"/>
<stop offset="1" stop-color="#D6D6D6"/>
</linearGradient>
<clipPath id="clip0_421_21">
<rect width="722" height="458" fill="white"/>
</clipPath>
</defs>
</svg>
